<svg xmlns="http://www.w3.org/2000/svg" width="52" height="52" viewBox="0 0 52 52">
  <defs>
    <linearGradient id="aiGradient" x1="0%" y1="0%" x2="100%" y2="100%">
      <stop offset="0%" style="stop-color:#f093fb;stop-opacity:1" />
      <stop offset="50%" style="stop-color:#f5576c;stop-opacity:1" />
      <stop offset="100%" style="stop-color:#4facfe;stop-opacity:1" />
    </linearGradient>
    <filter id="aiShadow" x="-50%" y="-50%" width="200%" height="200%">
      <feDropShadow dx="0" dy="4" stdDeviation="3" flood-color="rgba(240, 147, 251, 0.4)"/>
    </filter>
    <filter id="glow">
      <feGaussianBlur stdDeviation="2" result="coloredBlur"/>
      <feMerge> 
        <feMergeNode in="coloredBlur"/>
        <feMergeNode in="SourceGraphic"/>
      </feMerge>
    </filter>
  </defs>
  
  <!-- Background with 3D effect -->
  <rect width="52" height="52" rx="16" fill="url(#aiGradient)" filter="url(#aiShadow)"/>
  
  <!-- Inner highlight -->
  <rect x="1" y="1" width="50" height="25" rx="15" fill="rgba(255,255,255,0.3)"/>
  
  <!-- Robot/AI Icon -->
  <g transform="translate(13, 12)" fill="white" filter="url(#glow)">
    <!-- Robot head -->
    <rect x="6" y="4" width="14" height="12" rx="2" fill="white"/>
    <!-- Eyes -->
    <circle cx="10" cy="8" r="1.5" fill="#f093fb"/>
    <circle cx="16" cy="8" r="1.5" fill="#f093fb"/>
    <!-- Antenna -->
    <rect x="12" y="0" width="2" height="4" fill="white"/>
    <circle cx="13" cy="0" r="1" fill="white"/>
    <!-- Body -->
    <rect x="4" y="16" width="18" height="12" rx="2" fill="white"/>
    <!-- Arms -->
    <rect x="0" y="18" width="4" height="8" rx="2" fill="white"/>
    <rect x="22" y="18" width="4" height="8" rx="2" fill="white"/>
    <!-- Body details -->
    <rect x="8" y="20" width="10" height="2" rx="1" fill="#f093fb"/>
    <rect x="10" y="23" width="6" height="2" rx="1" fill="#f093fb"/>
  </g>
</svg>